<svg xmlns="http://www.w3.org/2000/svg" viewBox="0 0 1600 1000" width="1600" height="1000" preserveAspectRatio="xMidYMid slice">
<defs>
  <linearGradient id="bg" x1="0" y1="0" x2="0" y2="1">
    <stop offset="0" stop-color="#232323"/><stop offset="1" stop-color="#080808"/>
  </linearGradient>
  <radialGradient id="glow" cx=".5" cy=".2" r=".62">
    <stop offset="0" stop-color="#c3a15f" stop-opacity=".26"/>
    <stop offset=".55" stop-color="#c3a15f" stop-opacity=".07"/>
    <stop offset="1" stop-color="#c3a15f" stop-opacity="0"/>
  </radialGradient>
  <linearGradient id="floor" x1="0" y1="0" x2="0" y2="1">
    <stop offset="0" stop-color="#1a1a1a"/><stop offset="1" stop-color="#050505"/>
  </linearGradient>
  <linearGradient id="rim" x1="0" y1="0" x2="1" y2="0">
    <stop offset="0" stop-color="#c3a15f" stop-opacity="0"/>
    <stop offset=".5" stop-color="#c3a15f" stop-opacity=".85"/>
    <stop offset="1" stop-color="#c3a15f" stop-opacity="0"/>
  </linearGradient>
  <radialGradient id="vig" cx=".5" cy=".48" r=".78">
    <stop offset=".5" stop-color="#000" stop-opacity="0"/>
    <stop offset="1" stop-color="#000" stop-opacity=".7"/>
  </radialGradient>
  <filter id="grain" x="0" y="0" width="100%" height="100%">
    <feTurbulence type="fractalNoise" baseFrequency="0.9" numOctaves="3" stitchTiles="stitch"/>
    <feColorMatrix type="saturate" values="0"/>
  </filter>
  <filter id="soft" x="-30%" y="-30%" width="160%" height="160%">
    <feGaussianBlur stdDeviation="26"/>
  </filter>
</defs>
  <rect width="1600" height="1000" fill="url(#bg)"/>
  <rect width="1600" height="1000" fill="url(#glow)"/>
  <rect x="170" y="246" width="1260" height="11" fill="#1e1e1e"/>
  <rect x="170" y="246" width="1260" height="2.5" fill="#c3a15f" opacity=".35"/>
  <rect x="190" y="148" width="83" height="98" fill="#ffffff" opacity="0.114"/>
  <rect x="190" y="148" width="83" height="3" fill="#c3a15f" opacity="0.48"/>
  <rect x="294" y="186" width="100" height="60" fill="#ffffff" opacity="0.087"/>
  <rect x="294" y="186" width="100" height="3" fill="#c3a15f" opacity="0.48"/>
  <rect x="414" y="182" width="98" height="64" fill="#ffffff" opacity="0.088"/>
  <rect x="414" y="182" width="98" height="3" fill="#c3a15f" opacity="0.26"/>
  <rect x="531" y="187" width="80" height="59" fill="#ffffff" opacity="0.067"/>
  <rect x="531" y="187" width="80" height="3" fill="#c3a15f" opacity="0.27"/>
  <rect x="636" y="179" width="91" height="67" fill="#ffffff" opacity="0.114"/>
  <rect x="636" y="179" width="91" height="3" fill="#c3a15f" opacity="0.22"/>
  <rect x="746" y="188" width="55" height="58" fill="#ffffff" opacity="0.120"/>
  <rect x="746" y="188" width="55" height="3" fill="#c3a15f" opacity="0.25"/>
  <rect x="814" y="141" width="103" height="105" fill="#ffffff" opacity="0.073"/>
  <rect x="814" y="141" width="103" height="3" fill="#c3a15f" opacity="0.49"/>
  <rect x="935" y="177" width="86" height="69" fill="#ffffff" opacity="0.125"/>
  <rect x="935" y="177" width="86" height="3" fill="#c3a15f" opacity="0.40"/>
  <rect x="1046" y="172" width="98" height="74" fill="#ffffff" opacity="0.079"/>
  <rect x="1046" y="172" width="98" height="3" fill="#c3a15f" opacity="0.23"/>
  <rect x="1156" y="172" width="52" height="74" fill="#ffffff" opacity="0.098"/>
  <rect x="1156" y="172" width="52" height="3" fill="#c3a15f" opacity="0.18"/>
  <rect x="1228" y="171" width="67" height="75" fill="#ffffff" opacity="0.115"/>
  <rect x="1228" y="171" width="67" height="3" fill="#c3a15f" opacity="0.33"/>
  <rect x="1309" y="150" width="75" height="96" fill="#ffffff" opacity="0.055"/>
  <rect x="1309" y="150" width="75" height="3" fill="#c3a15f" opacity="0.49"/>
  <rect x="170" y="396" width="1260" height="11" fill="#1e1e1e"/>
  <rect x="170" y="396" width="1260" height="2.5" fill="#c3a15f" opacity=".35"/>
  <rect x="190" y="295" width="49" height="101" fill="#ffffff" opacity="0.079"/>
  <rect x="190" y="295" width="49" height="3" fill="#c3a15f" opacity="0.37"/>
  <rect x="248" y="328" width="51" height="68" fill="#ffffff" opacity="0.126"/>
  <rect x="248" y="328" width="51" height="3" fill="#c3a15f" opacity="0.24"/>
  <rect x="321" y="287" width="100" height="109" fill="#ffffff" opacity="0.078"/>
  <rect x="321" y="287" width="100" height="3" fill="#c3a15f" opacity="0.29"/>
  <rect x="439" y="332" width="91" height="64" fill="#ffffff" opacity="0.110"/>
  <rect x="439" y="332" width="91" height="3" fill="#c3a15f" opacity="0.44"/>
  <rect x="554" y="287" width="50" height="109" fill="#ffffff" opacity="0.057"/>
  <rect x="554" y="287" width="50" height="3" fill="#c3a15f" opacity="0.29"/>
  <rect x="623" y="320" width="99" height="76" fill="#ffffff" opacity="0.124"/>
  <rect x="623" y="320" width="99" height="3" fill="#c3a15f" opacity="0.35"/>
  <rect x="737" y="328" width="66" height="68" fill="#ffffff" opacity="0.056"/>
  <rect x="737" y="328" width="66" height="3" fill="#c3a15f" opacity="0.23"/>
  <rect x="823" y="329" width="104" height="67" fill="#ffffff" opacity="0.054"/>
  <rect x="823" y="329" width="104" height="3" fill="#c3a15f" opacity="0.50"/>
  <rect x="945" y="325" width="71" height="71" fill="#ffffff" opacity="0.098"/>
  <rect x="945" y="325" width="71" height="3" fill="#c3a15f" opacity="0.44"/>
  <rect x="1033" y="335" width="72" height="61" fill="#ffffff" opacity="0.123"/>
  <rect x="1033" y="335" width="72" height="3" fill="#c3a15f" opacity="0.19"/>
  <rect x="1122" y="331" width="95" height="65" fill="#ffffff" opacity="0.109"/>
  <rect x="1122" y="331" width="95" height="3" fill="#c3a15f" opacity="0.48"/>
  <rect x="1236" y="332" width="92" height="64" fill="#ffffff" opacity="0.085"/>
  <rect x="1236" y="332" width="92" height="3" fill="#c3a15f" opacity="0.23"/>
  <rect x="170" y="546" width="1260" height="11" fill="#1e1e1e"/>
  <rect x="170" y="546" width="1260" height="2.5" fill="#c3a15f" opacity=".35"/>
  <rect x="190" y="442" width="104" height="104" fill="#ffffff" opacity="0.128"/>
  <rect x="190" y="442" width="104" height="3" fill="#c3a15f" opacity="0.33"/>
  <rect x="311" y="462" width="89" height="84" fill="#ffffff" opacity="0.073"/>
  <rect x="311" y="462" width="89" height="3" fill="#c3a15f" opacity="0.31"/>
  <rect x="412" y="435" width="69" height="111" fill="#ffffff" opacity="0.127"/>
  <rect x="412" y="435" width="69" height="3" fill="#c3a15f" opacity="0.38"/>
  <rect x="498" y="483" width="67" height="63" fill="#ffffff" opacity="0.072"/>
  <rect x="498" y="483" width="67" height="3" fill="#c3a15f" opacity="0.43"/>
  <rect x="589" y="446" width="68" height="100" fill="#ffffff" opacity="0.112"/>
  <rect x="589" y="446" width="68" height="3" fill="#c3a15f" opacity="0.40"/>
  <rect x="677" y="468" width="91" height="78" fill="#ffffff" opacity="0.106"/>
  <rect x="677" y="468" width="91" height="3" fill="#c3a15f" opacity="0.27"/>
  <rect x="785" y="451" width="91" height="95" fill="#ffffff" opacity="0.074"/>
  <rect x="785" y="451" width="91" height="3" fill="#c3a15f" opacity="0.48"/>
  <rect x="896" y="487" width="81" height="59" fill="#ffffff" opacity="0.094"/>
  <rect x="896" y="487" width="81" height="3" fill="#c3a15f" opacity="0.26"/>
  <rect x="997" y="444" width="74" height="102" fill="#ffffff" opacity="0.102"/>
  <rect x="997" y="444" width="74" height="3" fill="#c3a15f" opacity="0.44"/>
  <rect x="1086" y="448" width="84" height="98" fill="#ffffff" opacity="0.116"/>
  <rect x="1086" y="448" width="84" height="3" fill="#c3a15f" opacity="0.29"/>
  <rect x="1194" y="451" width="97" height="95" fill="#ffffff" opacity="0.128"/>
  <rect x="1194" y="451" width="97" height="3" fill="#c3a15f" opacity="0.49"/>
  <rect x="1308" y="479" width="78" height="67" fill="#ffffff" opacity="0.117"/>
  <rect x="1308" y="479" width="78" height="3" fill="#c3a15f" opacity="0.48"/>
  <rect x="170" y="696" width="1260" height="11" fill="#1e1e1e"/>
  <rect x="170" y="696" width="1260" height="2.5" fill="#c3a15f" opacity=".35"/>
  <rect x="190" y="599" width="87" height="97" fill="#ffffff" opacity="0.108"/>
  <rect x="190" y="599" width="87" height="3" fill="#c3a15f" opacity="0.23"/>
  <rect x="299" y="602" width="81" height="94" fill="#ffffff" opacity="0.084"/>
  <rect x="299" y="602" width="81" height="3" fill="#c3a15f" opacity="0.38"/>
  <rect x="402" y="599" width="84" height="97" fill="#ffffff" opacity="0.052"/>
  <rect x="402" y="599" width="84" height="3" fill="#c3a15f" opacity="0.23"/>
  <rect x="502" y="626" width="84" height="70" fill="#ffffff" opacity="0.105"/>
  <rect x="502" y="626" width="84" height="3" fill="#c3a15f" opacity="0.38"/>
  <rect x="596" y="626" width="74" height="70" fill="#ffffff" opacity="0.054"/>
  <rect x="596" y="626" width="74" height="3" fill="#c3a15f" opacity="0.22"/>
  <rect x="685" y="628" width="58" height="68" fill="#ffffff" opacity="0.053"/>
  <rect x="685" y="628" width="58" height="3" fill="#c3a15f" opacity="0.33"/>
  <rect x="758" y="606" width="82" height="90" fill="#ffffff" opacity="0.069"/>
  <rect x="758" y="606" width="82" height="3" fill="#c3a15f" opacity="0.47"/>
  <rect x="850" y="623" width="71" height="73" fill="#ffffff" opacity="0.083"/>
  <rect x="850" y="623" width="71" height="3" fill="#c3a15f" opacity="0.22"/>
  <rect x="944" y="636" width="69" height="60" fill="#ffffff" opacity="0.099"/>
  <rect x="944" y="636" width="69" height="3" fill="#c3a15f" opacity="0.21"/>
  <rect x="1031" y="607" width="67" height="89" fill="#ffffff" opacity="0.127"/>
  <rect x="1031" y="607" width="67" height="3" fill="#c3a15f" opacity="0.44"/>
  <rect x="1114" y="603" width="94" height="93" fill="#ffffff" opacity="0.080"/>
  <rect x="1114" y="603" width="94" height="3" fill="#c3a15f" opacity="0.23"/>
  <rect x="1226" y="586" width="80" height="110" fill="#ffffff" opacity="0.127"/>
  <rect x="1226" y="586" width="80" height="3" fill="#c3a15f" opacity="0.37"/>
  <rect x="164" y="110" width="12" height="640" fill="#131313"/>
  <rect x="794" y="110" width="12" height="640" fill="#131313"/>
  <rect x="1424" y="110" width="12" height="640" fill="#131313"/>
  <path d="M420 0 L420 132" stroke="#2a2a2a" stroke-width="3"/>
  <path d="M356 178 L390 132 L450 132 L484 178 Z" fill="#191919"/>
  <rect x="356" y="176" width="128" height="7" rx="3.5" fill="#c3a15f" opacity=".9"/>
  <ellipse cx="420" cy="196" rx="150" ry="58" fill="#c3a15f" opacity=".15" filter="url(#soft)"/>
  <path d="M800 0 L800 132" stroke="#2a2a2a" stroke-width="3"/>
  <path d="M736 178 L770 132 L830 132 L864 178 Z" fill="#191919"/>
  <rect x="736" y="176" width="128" height="7" rx="3.5" fill="#c3a15f" opacity=".9"/>
  <ellipse cx="800" cy="196" rx="150" ry="58" fill="#c3a15f" opacity=".15" filter="url(#soft)"/>
  <path d="M1180 0 L1180 132" stroke="#2a2a2a" stroke-width="3"/>
  <path d="M1116 178 L1150 132 L1210 132 L1244 178 Z" fill="#191919"/>
  <rect x="1116" y="176" width="128" height="7" rx="3.5" fill="#c3a15f" opacity=".9"/>
  <ellipse cx="1180" cy="196" rx="150" ry="58" fill="#c3a15f" opacity=".15" filter="url(#soft)"/>
  <rect x="0" y="752" width="1600" height="248" fill="url(#floor)"/>
  <path d="M250 758 L1350 758 L1420 1000 L180 1000 Z" fill="#131313"/>
  <path d="M250 758 L1350 758 L1354 776 L246 776 Z" fill="#242424"/>
  <rect x="246" y="757" width="1108" height="3.5" fill="url(#rim)"/>
  <path d="M433 776 L444 1000" stroke="#000000" stroke-opacity=".5" stroke-width="2"/>
  <path d="M616 776 L627 1000" stroke="#000000" stroke-opacity=".5" stroke-width="2"/>
  <path d="M799 776 L810 1000" stroke="#000000" stroke-opacity=".5" stroke-width="2"/>
  <path d="M982 776 L993 1000" stroke="#000000" stroke-opacity=".5" stroke-width="2"/>
  <path d="M1165 776 L1176 1000" stroke="#000000" stroke-opacity=".5" stroke-width="2"/>
  <ellipse cx="800" cy="800" rx="520" ry="60" fill="#c3a15f" opacity=".07" filter="url(#soft)"/>
  <rect width="1600" height="1000" fill="url(#vig)"/>
  <rect width="1600" height="1000" filter="url(#grain)" opacity=".13"/>
</svg>
